<?xml version="1.0" encoding="UTF-8" standalone="no"?>
<!DOCTYPE svg PUBLIC "-//W3C//DTD SVG 1.1//EN" "http://www.w3.org/Graphics/SVG/1.1/DTD/svg11.dtd">
<svg width="100%" height="100%" viewBox="0 0 163 122" version="1.1" xmlns="http://www.w3.org/2000/svg" xmlns:xlink="http://www.w3.org/1999/xlink" xml:space="preserve" xmlns:serif="http://www.serif.com/" style="fill-rule:evenodd;clip-rule:evenodd;stroke-linejoin:round;stroke-miterlimit:1.41421;">
    <g transform="matrix(1,0,0,1,-0.3796,-8.89815)">
        <g id="Fill-367" transform="matrix(1,0,0,1,0,-8.72995)">
            <path d="M85.507,97.642C83.08,94.23 79.11,94.23 76.683,97.642L46.111,132.629C43.684,136.041 45.124,138.832 49.311,138.832L112.879,138.832C117.066,138.832 118.506,136.041 116.079,132.629L85.507,97.642ZM147.888,17.628C156.283,17.628 163.113,24.458 163.113,32.853L163.113,109.497C163.113,117.892 156.283,124.722 147.888,124.722L124.512,124.722L117.512,117.11L147.888,117.11C152.085,117.11 155.5,113.695 155.5,109.497L155.5,32.853C155.5,28.655 152.085,25.24 147.888,25.24L15.605,25.24C11.407,25.24 7.992,28.655 7.992,32.853L7.992,109.497C7.992,113.695 11.407,117.11 15.605,117.11L46.131,117.11L39.131,124.722L15.605,124.722C7.21,124.722 0.38,117.892 0.38,109.497L0.38,32.853C0.38,24.458 7.209,17.628 15.605,17.628L147.888,17.628Z"/>
        </g>
    </g>
</svg>
