<?xml version="1.0" encoding="UTF-8" standalone="no"?><!DOCTYPE svg PUBLIC "-//W3C//DTD SVG 1.1//EN" "http://www.w3.org/Graphics/SVG/1.1/DTD/svg11.dtd"><svg width="100%" height="100%" viewBox="0 0 10 10" version="1.1" xmlns="http://www.w3.org/2000/svg" xmlns:xlink="http://www.w3.org/1999/xlink" xml:space="preserve" xmlns:serif="http://www.serif.com/" style="fill-rule:evenodd;clip-rule:evenodd;stroke-linejoin:round;stroke-miterlimit:1.41421;"><path d="M0,0l0,9.6l9.6,0l0,-9.6l-9.6,0Zm8.862,8.862l-8.124,0l0,-2.216l8.124,0l0,2.216Zm0,-2.954l-8.124,0l0,-2.216l8.124,0l0,2.216Zm0,-2.954l-8.124,0l0,-2.216l8.124,0l0,2.216Zm-2.585,-1.846l-0.739,0l0,0.369l-1.476,0l0,-0.369l-0.739,0l0,1.107l2.954,0l0,-1.107Zm0,2.954l-0.739,0l0,0.369l-1.476,0l0,-0.369l-0.739,0l0,1.107l2.954,0l0,-1.107Zm0,2.953l-0.739,0l0,0.37l-1.476,0l0,-0.37l-0.739,0l0,1.108l2.954,0l0,-1.108Z" style="fill-rule:nonzero;"/></svg>