<?xml version="1.0" encoding="UTF-8" standalone="no"?><!DOCTYPE svg PUBLIC "-//W3C//DTD SVG 1.1//EN" "http://www.w3.org/Graphics/SVG/1.1/DTD/svg11.dtd"><svg width="100%" height="100%" viewBox="0 0 16 16" version="1.1" xmlns="http://www.w3.org/2000/svg" xmlns:xlink="http://www.w3.org/1999/xlink" xml:space="preserve" xmlns:serif="http://www.serif.com/" style="fill-rule:evenodd;clip-rule:evenodd;stroke-linejoin:round;stroke-miterlimit:1.41421;"><path d="M15.637,1.702c-0.123,0.409 -0.447,0.703 -0.866,0.787l-0.353,0.07l-1.004,1.227c-0.258,0.317 -0.642,0.498 -1.052,0.498c-0.027,0 -0.052,-0.006 -0.078,-0.007l-3.801,3.8c0.573,0.082 1.171,0.205 1.463,0.62c0.162,0.231 0.208,0.519 0.136,0.857c-0.099,0.469 -0.601,0.715 -1.133,0.975c-0.496,0.242 -1.008,0.493 -1.131,0.886l-0.441,1.966c-0.272,1.206 -1.007,1.767 -2.314,1.767l0,0c-0.065,0 -0.131,-0.001 -0.199,-0.004c-3.064,-0.214 -4.382,-3.206 -4.712,-4.118c-0.443,-1.284 0.108,-2.497 1.338,-2.953l2.086,-0.775c0.346,-0.15 0.532,-0.597 0.746,-1.114c0.245,-0.59 0.522,-1.259 1.144,-1.753c0.392,-0.31 0.763,-0.468 1.105,-0.468c0.692,0 1.073,0.63 1.133,1.215c0.027,0.265 -0.029,0.685 -0.095,1.171c-0.01,0.073 -0.02,0.147 -0.029,0.221l3.442,-3.443c-0.018,-0.121 -0.025,-0.244 -0.009,-0.369c0.051,-0.418 0.288,-0.783 0.649,-1l0.026,-0.015l-0.05,-0.051c-0.11,-0.109 -0.11,-0.286 0,-0.395c0.109,-0.109 0.286,-0.109 0.395,0l0.149,0.149l0.519,-0.311l-0.051,-0.05c-0.109,-0.109 -0.109,-0.286 0,-0.396c0.109,-0.109 0.286,-0.109 0.396,0l0.149,0.15l0.518,-0.311l-0.05,-0.051c-0.11,-0.109 -0.11,-0.286 0,-0.395c0.109,-0.109 0.286,-0.109 0.395,0l0.185,0.185c0.384,-0.099 0.814,0.004 1.099,0.289c0.313,0.313 0.419,0.737 0.295,1.146Zm-3.985,2.378c-0.088,-0.054 -0.172,-0.116 -0.247,-0.191c-0.001,-0.001 -0.002,-0.001 -0.003,-0.002c-0.059,-0.059 -0.112,-0.123 -0.158,-0.191l-3.826,3.826c0,0 0,0 0,0l-1.778,1.778l0.415,0.415l1.258,-1.258l4.36,-4.361c-0.008,-0.004 -0.014,-0.011 -0.021,-0.016Zm-4.597,2.195c0.056,-0.414 0.113,-0.841 0.093,-1.04c-0.027,-0.265 -0.18,-0.713 -0.577,-0.713c-0.209,0 -0.471,0.12 -0.757,0.347c-0.509,0.404 -0.746,0.976 -0.975,1.529c-0.25,0.604 -0.487,1.173 -1.054,1.419l-2.1,0.78c-0.943,0.35 -1.348,1.251 -1.006,2.243c0.3,0.827 1.496,3.556 4.215,3.746c0.052,0.002 0.112,0.003 0.169,0.003c1.219,0 1.589,-0.532 1.768,-1.331l0.448,-1.988c0.201,-0.645 0.851,-0.963 1.424,-1.244c0.37,-0.18 0.789,-0.385 0.832,-0.588c0.039,-0.183 0.024,-0.319 -0.047,-0.419c-0.188,-0.268 -0.776,-0.348 -1.294,-0.418c-0.07,-0.01 -0.138,-0.019 -0.206,-0.028l-0.794,0.794l-0.942,0.941c-0.026,0.027 -0.058,0.047 -0.092,0.061c-0.015,0.006 -0.031,0.006 -0.047,0.009c-0.02,0.005 -0.038,0.012 -0.058,0.012c-0.021,0 -0.041,-0.008 -0.061,-0.012c-0.015,-0.003 -0.031,-0.003 -0.045,-0.009c-0.034,-0.014 -0.066,-0.034 -0.092,-0.061l-0.81,-0.81c-0.026,-0.027 -0.047,-0.058 -0.061,-0.092c-0.028,-0.068 -0.028,-0.144 0,-0.212c0.014,-0.034 0.035,-0.065 0.061,-0.092l1.901,-1.901c0.021,-0.289 0.065,-0.613 0.107,-0.926Zm7.902,-5.313c-0.12,-0.12 -0.265,-0.18 -0.42,-0.18c-0.105,0 -0.208,0.029 -0.298,0.082l-2.289,1.374c-0.213,0.127 -0.352,0.342 -0.382,0.588c-0.014,0.108 -0.002,0.214 0.027,0.315c0,0.001 0.001,0.001 0.001,0.002c0.038,0.135 0.106,0.252 0.2,0.347c0.049,0.049 0.106,0.086 0.165,0.121c0.028,0.015 0.057,0.029 0.086,0.041c0.027,0.011 0.055,0.019 0.083,0.028c0.301,0.085 0.648,0.001 0.852,-0.248l1.067,-1.304c0.041,-0.051 0.098,-0.085 0.161,-0.098l0.451,-0.09c0.213,-0.042 0.378,-0.192 0.441,-0.4c0.063,-0.208 0.009,-0.424 -0.145,-0.578Zm-9.514,10.156c-0.055,0.055 -0.127,0.082 -0.198,0.082c-0.072,0 -0.143,-0.027 -0.198,-0.082l-0.81,-0.81c-0.109,-0.109 -0.109,-0.286 0,-0.395c0.109,-0.11 0.286,-0.11 0.395,0l0.811,0.809c0.109,0.11 0.109,0.287 0,0.396Zm-0.811,0.81c-0.054,0.054 -0.126,0.082 -0.197,0.082c-0.072,0 -0.143,-0.028 -0.198,-0.082l-0.81,-0.81c-0.109,-0.109 -0.109,-0.286 0,-0.396c0.109,-0.109 0.286,-0.109 0.395,0l0.81,0.811c0.11,0.109 0.11,0.286 0,0.395Zm0.066,1.624c0.05,0.053 0.081,0.125 0.081,0.198c0,0.073 -0.031,0.145 -0.081,0.199c-0.053,0.05 -0.126,0.081 -0.198,0.081c-0.073,0 -0.146,-0.031 -0.199,-0.081c-0.05,-0.054 -0.081,-0.126 -0.081,-0.199c0,-0.073 0.031,-0.145 0.081,-0.198c0.103,-0.104 0.293,-0.104 0.397,0Zm0.839,-0.56c0.05,0.053 0.081,0.126 0.081,0.199c0,0.072 -0.031,0.145 -0.081,0.198c-0.051,0.051 -0.123,0.082 -0.198,0.082c-0.076,0 -0.149,-0.031 -0.199,-0.084c-0.05,-0.051 -0.081,-0.124 -0.081,-0.196c0,-0.073 0.031,-0.146 0.081,-0.199c0.103,-0.103 0.293,-0.103 0.397,0Zm0.839,-0.559c0.05,0.053 0.081,0.126 0.081,0.199c0,0.072 -0.031,0.145 -0.081,0.198c-0.053,0.05 -0.126,0.081 -0.199,0.081c-0.073,0 -0.145,-0.031 -0.198,-0.081c-0.051,-0.053 -0.081,-0.123 -0.081,-0.198c0,-0.076 0.03,-0.146 0.081,-0.199c0.103,-0.104 0.293,-0.104 0.397,0Z" style="fill-rule:nonzero;"/></svg>