<?xml version="1.0" encoding="UTF-8" standalone="no"?><!DOCTYPE svg PUBLIC "-//W3C//DTD SVG 1.1//EN" "http://www.w3.org/Graphics/SVG/1.1/DTD/svg11.dtd"><svg width="100%" height="100%" viewBox="0 0 9 10" version="1.1" xmlns="http://www.w3.org/2000/svg" xmlns:xlink="http://www.w3.org/1999/xlink" xml:space="preserve" xmlns:serif="http://www.serif.com/" style="fill-rule:evenodd;clip-rule:evenodd;stroke-linejoin:round;stroke-miterlimit:1.41421;"><path d="M7.446,7.159l0,-6.882c0.009,-0.166 0.134,-0.286 0.307,-0.277c0.143,0.023 0.241,0.132 0.248,0.277l0,7.568c0.065,0.237 0.035,0.509 -0.129,0.815c-0.839,1.565 -5.144,1.118 -4.283,-0.907c0.334,-0.785 1.217,-1.072 2.219,-1.064c0.548,0.013 1.186,0.173 1.638,0.47Zm0,0.986c0,-0.008 -0.001,-0.016 -0.001,-0.023c-0.054,-0.636 -0.905,-0.884 -1.739,-0.878c-0.963,0.022 -2.339,0.696 -1.309,1.451c0.949,0.697 3.068,0.531 3.05,-0.519c0,-0.006 0,-0.011 -0.001,-0.016l0,-0.015Zm-4.814,0.321c0.279,0.024 0.311,0.527 0,0.554c-0.791,0.023 -1.583,0 -2.375,0c-0.285,-0.008 -0.361,-0.524 -0.016,-0.554c0.797,-0.023 1.595,-0.023 2.391,0Zm0,-1.555c0.279,0.025 0.311,0.527 0,0.554c-0.791,0.024 -1.583,0.001 -2.375,0.001c-0.285,-0.008 -0.361,-0.525 -0.016,-0.555c0.797,-0.023 1.595,-0.023 2.391,0Zm3.926,-1.027l-6.301,0c-0.291,-0.014 -0.39,-0.537 0,-0.555c2.109,0 4.221,-0.1 6.327,0.001c0.284,0.041 0.352,0.536 -0.026,0.554Zm0,-1.582l-6.301,0c-0.303,-0.015 -0.36,-0.538 0,-0.556c2.109,0 4.221,-0.099 6.327,0.002c0.538,0.077 0.233,0.541 -0.026,0.554Zm0,-1.583l-6.301,0c-0.296,-0.014 -0.378,-0.537 0,-0.555c2.109,0 4.221,-0.099 6.327,0.001c0.525,0.076 0.225,0.542 -0.026,0.554Zm0,-1.554l-6.301,0c-0.298,-0.014 -0.378,-0.537 0,-0.555c2.109,0 4.221,-0.099 6.327,0.001c0.285,0.041 0.352,0.536 -0.026,0.554Z" style="fill-rule:nonzero;"/></svg>