<?xml version="1.0" encoding="UTF-8" standalone="no"?><!DOCTYPE svg PUBLIC "-//W3C//DTD SVG 1.1//EN" "http://www.w3.org/Graphics/SVG/1.1/DTD/svg11.dtd"><svg width="100%" height="100%" viewBox="0 0 8 10" version="1.1" xmlns="http://www.w3.org/2000/svg" xmlns:xlink="http://www.w3.org/1999/xlink" xml:space="preserve" xmlns:serif="http://www.serif.com/" style="fill-rule:evenodd;clip-rule:evenodd;stroke-linejoin:round;stroke-miterlimit:1.41421;"><path d="M5.96,1.543l1.543,1.543l0,6.059c-0.001,0.234 -0.2,0.444 -0.444,0.449c-2.2,0.014 -4.401,0 -6.602,0c-0.234,-0.001 -0.445,-0.202 -0.449,-0.444c-0.018,-2.9 0,-5.8 0,-8.701c0.001,-0.235 0.205,-0.448 0.449,-0.449l3.96,0c0.515,0.514 1.029,1.029 1.543,1.543Zm-1.62,-1.196l-0.047,-0.047l-3.835,0c-0.079,0 -0.149,0.068 -0.15,0.148c-0.018,2.9 -0.054,5.801 0,8.7c0.002,0.077 0.068,0.144 0.145,0.146c2.201,0.041 4.404,0.041 6.605,0c0.077,-0.002 0.145,-0.068 0.145,-0.15l0,-5.846c-0.831,0.001 -1.662,0.005 -2.493,0c-0.194,-0.004 -0.368,-0.173 -0.37,-0.375l0,-2.576Zm1.065,8.195c0,0.083 -0.051,0.158 -0.132,0.212c-0.082,0.055 -0.194,0.088 -0.318,0.088c-0.124,0 -0.237,-0.033 -0.318,-0.088c-0.082,-0.054 -0.132,-0.129 -0.132,-0.212c0,-0.082 0.05,-0.157 0.132,-0.212c0.081,-0.054 0.194,-0.087 0.318,-0.087c0.026,0 0.052,0.001 0.077,0.005c0.025,0.003 0.049,0.007 0.073,0.013l0,-1.391c0,-0.036 0.013,-0.07 0.035,-0.096c0.023,-0.027 0.054,-0.045 0.09,-0.051l0.749,-0.125l0.75,-0.125c0.046,-0.008 0.089,0.006 0.122,0.033c0.032,0.028 0.053,0.068 0.053,0.115l0,1.622c0,0.082 -0.051,0.157 -0.132,0.212c-0.082,0.054 -0.194,0.087 -0.318,0.087c-0.124,0 -0.237,-0.033 -0.318,-0.087c-0.081,-0.055 -0.132,-0.13 -0.132,-0.212c0,-0.083 0.051,-0.158 0.132,-0.212c0.081,-0.055 0.194,-0.088 0.318,-0.088c0.026,0 0.052,0.002 0.077,0.005c0.025,0.003 0.049,0.008 0.073,0.013l0,-0.868l-0.6,0.1l-0.599,0.1l0,1.249Zm-1.589,0.003l-2.999,0l0,-0.15l2.999,0l0,0.15Zm0,-1.2l-2.999,0l0,-0.149l2.999,0l0,0.149Zm2.998,-1.199l-5.997,0l0,-0.15l5.997,0l0,0.15Zm0,-1.199l-5.997,0l0,-0.15l5.997,0l0,0.15Zm0,-1.199l-5.997,0l0,-0.15l5.997,0l0,0.15Zm-2.324,-3.251l0,2.426c0.001,0.118 0.104,0.224 0.225,0.225l2.426,0l-1.393,-1.393l-1.258,-1.258Zm-0.674,2.051l-2.999,0l0,-0.149l2.999,0l0,0.149Zm0,-1.199l-2.999,0l0,-0.15l2.999,0l0,0.15Z" style="fill-rule:nonzero;"/></svg>