<?xml version="1.0" encoding="UTF-8" standalone="no"?><!DOCTYPE svg PUBLIC "-//W3C//DTD SVG 1.1//EN" "http://www.w3.org/Graphics/SVG/1.1/DTD/svg11.dtd"><svg width="100%" height="100%" viewBox="0 0 8 8" version="1.1" xmlns="http://www.w3.org/2000/svg" xmlns:xlink="http://www.w3.org/1999/xlink" xml:space="preserve" xmlns:serif="http://www.serif.com/" style="fill-rule:evenodd;clip-rule:evenodd;stroke-linejoin:round;stroke-miterlimit:1.41421;"><path d="M6.96,0c0.397,0 0.72,0.322 0.72,0.72l0,6c0,0.53 -0.43,0.96 -0.96,0.96l-5.76,0c-0.53,0 -0.96,-0.43 -0.96,-0.96l0,-4.8c0,-0.398 0.322,-0.72 0.72,-0.72l0.24,0l0,-0.48c0,-0.398 0.322,-0.72 0.72,-0.72l5.28,0Zm-0.24,7.2c0.264,0 0.48,-0.216 0.48,-0.48l0,-6c0,-0.132 -0.108,-0.24 -0.24,-0.24l-5.28,0c-0.132,0 -0.24,0.108 -0.24,0.24l0,5.76c0,0.133 -0.107,0.24 -0.24,0.24c-0.133,0 -0.24,-0.107 -0.24,-0.24l0,-4.8l-0.24,0c-0.132,0 -0.24,0.108 -0.24,0.24l0,4.8c0,0.264 0.215,0.48 0.48,0.48l5.76,0Zm-2.76,-0.719c0.066,0 0.12,0.054 0.12,0.12c0,0.066 -0.054,0.12 -0.12,0.12l-1.92,0c-0.066,0 -0.12,-0.054 -0.12,-0.12c0,-0.066 0.054,-0.12 0.12,-0.12l1.92,0Zm2.64,0c0.066,0 0.12,0.054 0.12,0.12c0,0.066 -0.054,0.12 -0.12,0.12l-1.92,0c-0.066,0 -0.12,-0.054 -0.12,-0.12c0,-0.066 0.054,-0.12 0.12,-0.12l1.92,0Zm-2.64,-0.72c0.066,0 0.12,0.054 0.12,0.12c0,0.066 -0.054,0.12 -0.12,0.12l-1.92,0c-0.066,0 -0.12,-0.054 -0.12,-0.12c0,-0.066 0.054,-0.12 0.12,-0.12l1.92,0Zm2.64,0c0.066,0 0.12,0.054 0.12,0.12c0,0.066 -0.054,0.12 -0.12,0.12l-1.92,0c-0.066,0 -0.12,-0.054 -0.12,-0.12c0,-0.066 0.054,-0.12 0.12,-0.12l1.92,0Zm-2.64,-0.72c0.066,0 0.12,0.054 0.12,0.12c0,0.066 -0.054,0.12 -0.12,0.12l-1.92,0c-0.066,0 -0.12,-0.054 -0.12,-0.12c0,-0.066 0.054,-0.12 0.12,-0.12l1.92,0Zm2.64,0c0.066,0 0.12,0.054 0.12,0.12c0,0.066 -0.054,0.12 -0.12,0.12l-1.92,0c-0.066,0 -0.12,-0.054 -0.12,-0.12c0,-0.066 0.054,-0.12 0.12,-0.12l1.92,0Zm0,-0.72c0.066,0 0.12,0.054 0.12,0.12c0,0.066 -0.054,0.12 -0.12,0.12l-4.56,0c-0.066,0 -0.12,-0.054 -0.12,-0.12c0,-0.066 0.054,-0.12 0.12,-0.12l4.56,0Zm0,-0.72c0.066,0 0.12,0.054 0.12,0.12c0,0.066 -0.054,0.12 -0.12,0.12l-4.56,0c-0.066,0 -0.12,-0.054 -0.12,-0.12c0,-0.066 0.054,-0.12 0.12,-0.12l4.56,0Zm0,-0.72c0.066,0 0.12,0.054 0.12,0.12c0,0.066 -0.054,0.12 -0.12,0.12l-1.92,0c-0.066,0 -0.12,-0.054 -0.12,-0.12c0,-0.066 0.054,-0.12 0.12,-0.12l1.92,0Zm-2.76,-1.92c0.133,0 0.24,0.107 0.24,0.24l0,1.679c0,0.133 -0.107,0.24 -0.24,0.24l-1.68,0c-0.133,0 -0.24,-0.108 -0.24,-0.24l0,-1.679c0,-0.133 0.107,-0.24 0.24,-0.24l1.68,0Zm-0.24,1.679l0,-1.2l-1.2,0l0,1.2l1.2,0Zm3,-0.479c0.066,0 0.12,0.054 0.12,0.12c0,0.066 -0.054,0.12 -0.12,0.12l-1.92,0c-0.066,0 -0.12,-0.054 -0.12,-0.12c0,-0.066 0.054,-0.12 0.12,-0.12l1.92,0Zm0,-0.72c0.066,0 0.12,0.054 0.12,0.12c0,0.066 -0.054,0.12 -0.12,0.12l-1.92,0c-0.066,0 -0.12,-0.054 -0.12,-0.12c0,-0.066 0.054,-0.12 0.12,-0.12l1.92,0Z"/></svg>