<?xml version="1.0" encoding="UTF-8" standalone="no"?><!DOCTYPE svg PUBLIC "-//W3C//DTD SVG 1.1//EN" "http://www.w3.org/Graphics/SVG/1.1/DTD/svg11.dtd"><svg width="100%" height="100%" viewBox="0 0 22 22" version="1.1" xmlns="http://www.w3.org/2000/svg" xmlns:xlink="http://www.w3.org/1999/xlink" xml:space="preserve" xmlns:serif="http://www.serif.com/" style="fill-rule:evenodd;clip-rule:evenodd;stroke-linejoin:round;stroke-miterlimit:1.41421;"><path d="M3.843,14.945l0,6.405l-1.281,0c-1.414,0 -2.562,-1.148 -2.562,-2.562l0,-3.843l3.843,0Zm4.27,6.405l-3.416,0l0,-6.405l3.416,0l0,6.405Zm4.27,0l-3.416,0l0,-6.405l3.416,0l0,6.405Zm4.27,0l-3.416,0l0,-6.405l3.416,0l0,6.405Zm2.135,-21.35c1.414,0 2.562,1.148 2.562,2.562l0,16.226c0,1.414 -1.148,2.562 -2.562,2.562l-1.281,0l0,-6.405l3.837,0l0,-0.854l-3.837,0l0,-6.832l3.837,0l0,-0.854l-3.837,0l0,-1.452c0.778,-0.192 1.356,-0.895 1.356,-1.731c0,-0.837 -0.578,-1.54 -1.356,-1.731l0,-1.491l1.281,0Zm-18.788,7.259l3.843,0l0,6.832l-3.843,0l0,-6.832Zm16.653,0l0,6.832l-3.416,0l0,-1.685c0.778,-0.192 1.356,-0.894 1.356,-1.731c0,-0.837 -0.578,-1.539 -1.356,-1.731l0,-1.685l3.416,0Zm-4.27,0l0,1.685c-0.778,0.192 -1.356,0.894 -1.356,1.731c0,0.837 0.578,1.539 1.356,1.731l0,1.685l-3.416,0l0,-1.682c0.784,-0.187 1.369,-0.893 1.369,-1.734c0,-0.841 -0.585,-1.547 -1.369,-1.734l0,-1.682l3.416,0Zm-4.27,0l0,1.688c-0.771,0.196 -1.342,0.896 -1.342,1.728c0,0.832 0.571,1.532 1.342,1.728l0,1.688l-3.416,0l0,-6.832l3.416,0Zm-4.27,-0.854l-3.843,0l0,-3.843c0,-1.414 1.148,-2.562 2.562,-2.562l1.281,0l0,6.405Zm4.27,-6.405l0,6.405l-3.416,0l0,-6.405l3.416,0Zm4.27,0l0,6.405l-3.416,0l0,-6.405l3.416,0Zm4.27,0l0,1.491c-0.778,0.191 -1.356,0.894 -1.356,1.731c0,0.836 0.578,1.539 1.356,1.731l0,1.452l-3.416,0l0,-6.405l3.416,0Z" style="fill:#697072;"/></svg>