<?xml version="1.0" encoding="UTF-8" standalone="no"?><!DOCTYPE svg PUBLIC "-//W3C//DTD SVG 1.1//EN" "http://www.w3.org/Graphics/SVG/1.1/DTD/svg11.dtd"><svg width="100%" height="100%" viewBox="0 0 9 10" version="1.1" xmlns="http://www.w3.org/2000/svg" xmlns:xlink="http://www.w3.org/1999/xlink" xml:space="preserve" xmlns:serif="http://www.serif.com/" style="fill-rule:evenodd;clip-rule:evenodd;stroke-linejoin:round;stroke-miterlimit:1.41421;"><path d="M7.933,0.006c0.34,0.004 0.649,0.295 0.652,0.652c0.01,2.761 0.01,5.523 0,8.284c-0.003,0.339 -0.294,0.648 -0.652,0.652c-2.424,0.008 -4.849,0.008 -7.274,0c-0.338,-0.003 -0.648,-0.294 -0.652,-0.652c-0.009,-2.761 -0.009,-5.523 0,-8.284c0.003,-0.336 0.293,-0.648 0.652,-0.652c2.425,-0.008 4.85,-0.008 7.274,0Zm-6.412,9.087c2.138,0.013 4.275,0.042 6.412,-0.004c0.078,-0.002 0.147,-0.072 0.148,-0.15c0.01,-2.76 0.059,-5.521 0,-8.281c-0.003,-0.077 -0.072,-0.146 -0.151,-0.147c-2.136,-0.008 -4.272,-0.002 -6.409,0l0,8.582Zm-0.504,-8.582c-0.118,0 -0.236,0 -0.353,0c-0.079,0 -0.15,0.069 -0.152,0.148c-0.044,2.761 -0.062,5.523 0,8.283c0.002,0.077 0.072,0.146 0.15,0.147c0.118,0 0.236,0.001 0.355,0.001l0,-8.579Zm5.298,7.569l-3.028,0c-0.022,-0.003 -0.044,-0.003 -0.065,-0.009c-0.187,-0.05 -0.259,-0.348 -0.061,-0.462c0.051,-0.03 0.069,-0.026 0.126,-0.034l3.028,0c0.021,0.003 0.043,0.006 0.065,0.009c0.053,0.022 0.071,0.023 0.113,0.065c0.092,0.092 0.096,0.26 0,0.357c-0.031,0.031 -0.07,0.054 -0.113,0.065c-0.021,0.006 -0.044,0.006 -0.065,0.009Zm1.009,-1.009l-4.037,0c-0.022,-0.003 -0.044,-0.003 -0.065,-0.009c-0.187,-0.05 -0.259,-0.348 -0.061,-0.462c0.051,-0.03 0.069,-0.026 0.126,-0.034l4.037,0c0.022,0.003 0.043,0.006 0.065,0.009c0.054,0.022 0.071,0.023 0.113,0.065c0.094,0.094 0.095,0.262 0,0.357c-0.031,0.031 -0.07,0.054 -0.113,0.065c-0.021,0.006 -0.043,0.006 -0.065,0.009Zm0,-1.01l-4.037,0c-0.022,-0.002 -0.044,-0.002 -0.065,-0.008c-0.183,-0.049 -0.263,-0.346 -0.061,-0.462c0.051,-0.03 0.069,-0.027 0.126,-0.034l4.037,0c0.022,0.003 0.043,0.006 0.065,0.008c0.054,0.023 0.071,0.024 0.113,0.066c0.094,0.094 0.095,0.262 0,0.357c-0.031,0.031 -0.07,0.053 -0.113,0.065c-0.021,0.006 -0.043,0.006 -0.065,0.008Zm-2.019,-1.009l-3.027,0c-0.057,-0.007 -0.075,-0.004 -0.126,-0.034c-0.129,-0.074 -0.168,-0.281 -0.052,-0.396c0.031,-0.032 0.07,-0.054 0.113,-0.066c0.021,-0.005 0.043,-0.005 0.065,-0.008l3.027,0c0.022,0.003 0.044,0.005 0.066,0.008c0.053,0.022 0.071,0.024 0.113,0.066c0.092,0.092 0.096,0.261 0,0.356c-0.031,0.032 -0.07,0.054 -0.113,0.066c-0.021,0.005 -0.044,0.005 -0.066,0.008Zm-2.361,-4.036c0.091,0.008 0.174,0.061 0.213,0.143c0.005,0.011 0.006,0.014 0.011,0.026l0.711,2.044c0.04,0.128 -0.03,0.278 -0.156,0.321c-0.116,0.041 -0.257,-0.017 -0.31,-0.129c-0.006,-0.011 -0.006,-0.014 -0.011,-0.026l-0.178,-0.512l-0.613,0l-0.178,0.512c-0.046,0.12 -0.184,0.195 -0.308,0.16c-0.122,-0.035 -0.205,-0.173 -0.177,-0.299c0.003,-0.012 0.004,-0.015 0.008,-0.027l0.711,-2.044c0.015,-0.041 0.021,-0.047 0.032,-0.063c0.044,-0.062 0.117,-0.102 0.192,-0.106c0.015,-0.001 0.035,0 0.053,0Zm3.952,-0.037c0.258,0.002 0.508,0.108 0.703,0.291c0.07,0.066 0.12,0.193 0.072,0.301c-0.014,0.031 -0.022,0.042 -0.033,0.057c-0.093,0.122 -0.305,0.131 -0.404,0c-0.016,-0.022 -0.017,-0.023 -0.024,-0.028c-0.164,-0.134 -0.414,-0.157 -0.599,-0.038c-0.216,0.138 -0.298,0.427 -0.296,0.711c0.002,0.206 0.041,0.422 0.174,0.584c0.138,0.171 0.393,0.24 0.622,0.127c0.065,-0.033 0.122,-0.082 0.172,-0.138c0,0 0.067,-0.066 0.135,-0.082c0.136,-0.032 0.291,0.072 0.308,0.216c0.02,0.171 -0.157,0.316 -0.313,0.413c-0.393,0.241 -0.949,0.181 -1.271,-0.165c-0.242,-0.262 -0.337,-0.64 -0.331,-1.001c0.008,-0.499 0.242,-1.037 0.764,-1.201c0.103,-0.032 0.211,-0.047 0.321,-0.047Zm-2.057,2.56l-0.543,0c-0.046,-0.002 -0.059,-0.006 -0.083,-0.015c-0.089,-0.031 -0.157,-0.115 -0.167,-0.21c-0.002,-0.012 -0.002,-0.015 -0.002,-0.028l0,-2.018c0.001,-0.046 0.006,-0.059 0.014,-0.083c0.031,-0.089 0.115,-0.157 0.21,-0.168c0.013,-0.001 0.016,-0.001 0.028,-0.001c0.159,0 0.318,-0.001 0.477,0c0.195,0.001 0.396,0.037 0.556,0.159c0.301,0.229 0.34,0.718 0.124,1.02c0.35,0.316 0.329,1.024 -0.194,1.261c-0.131,0.059 -0.276,0.082 -0.42,0.083Zm-0.006,-1.06l-0.284,0l0,0.555c0.198,0 0.424,0.044 0.558,-0.073c0.053,-0.046 0.064,-0.125 0.067,-0.2c0.005,-0.109 -0.046,-0.232 -0.2,-0.254c-0.035,-0.006 -0.079,-0.008 -0.079,-0.008c-0.022,-0.004 -0.043,-0.011 -0.062,-0.02Zm-2.047,-0.101l0.262,0l-0.131,-0.377c-0.043,0.126 -0.087,0.251 -0.131,0.377Zm2.172,-0.404l0.001,0c0.098,-0.054 0.15,-0.167 0.122,-0.297c-0.024,-0.111 -0.166,-0.156 -0.309,-0.157c-0.075,0 -0.149,0 -0.223,0l0,0.454l0.403,0l0.006,0Z" style="fill-rule:nonzero;"/></svg>