<?xml version="1.0" encoding="UTF-8" standalone="no"?><!DOCTYPE svg PUBLIC "-//W3C//DTD SVG 1.1//EN" "http://www.w3.org/Graphics/SVG/1.1/DTD/svg11.dtd"><svg width="100%" height="100%" viewBox="0 0 12 12" version="1.1" xmlns="http://www.w3.org/2000/svg" xmlns:xlink="http://www.w3.org/1999/xlink" xml:space="preserve" xmlns:serif="http://www.serif.com/" style="fill-rule:evenodd;clip-rule:evenodd;stroke-linejoin:round;stroke-miterlimit:1.41421;"><path d="M9.918,0c0.712,0 1.29,0.578 1.29,1.29l0,8.628c0,0.712 -0.578,1.29 -1.29,1.29l-8.628,0c-0.712,0 -1.29,-0.578 -1.29,-1.29l0,-8.628c0,-0.712 0.578,-1.29 1.29,-1.29l8.628,0Zm-1.356,9.995l0,-8.874l-1.715,0l0,3.922c-0.274,-0.315 -0.542,-0.542 -0.803,-0.682c-0.261,-0.139 -0.582,-0.209 -0.962,-0.209c-0.668,0 -1.241,0.291 -1.719,0.874c-0.478,0.583 -0.717,1.286 -0.717,2.11c0,0.825 0.231,1.523 0.694,2.094c0.462,0.572 1.021,0.858 1.676,0.858c0.734,0 1.349,-0.357 1.845,-1.071l0.026,0l0,0.978l1.675,0Zm-2.968,-4.155c-0.278,0 -0.539,0.129 -0.782,0.386c-0.243,0.257 -0.364,0.605 -0.364,1.043c0,0.35 0.107,0.65 0.321,0.898c0.214,0.248 0.474,0.372 0.779,0.372c0.362,0 0.665,-0.134 0.908,-0.402c0.243,-0.268 0.365,-0.602 0.365,-1.001c0,-0.345 -0.119,-0.648 -0.355,-0.907c-0.236,-0.259 -0.527,-0.389 -0.872,-0.389Z"/></svg>