<?xml version="1.0" encoding="UTF-8" standalone="no"?><!DOCTYPE svg PUBLIC "-//W3C//DTD SVG 1.1//EN" "http://www.w3.org/Graphics/SVG/1.1/DTD/svg11.dtd"><svg width="100%" height="100%" viewBox="0 0 18 15" version="1.1" xmlns="http://www.w3.org/2000/svg" xmlns:xlink="http://www.w3.org/1999/xlink" xml:space="preserve" xmlns:serif="http://www.serif.com/" style="fill-rule:evenodd;clip-rule:evenodd;stroke-linejoin:round;stroke-miterlimit:1.41421;"><path d="M1.744,1.098l-1.601,-0.656c-0.118,-0.048 -0.174,-0.182 -0.126,-0.299c0.048,-0.118 0.182,-0.174 0.3,-0.126l3.458,1.417c0.118,0.048 0.174,0.182 0.126,0.299c-0.037,0.089 -0.123,0.143 -0.213,0.143c-0.029,0 -0.059,-0.005 -0.087,-0.017l-1.412,-0.578l0,11.545l0.838,0.818c0.091,0.088 0.093,0.234 0.004,0.325c-0.089,0.09 -0.234,0.092 -0.325,0.004l-0.695,-0.678c-0.017,0.003 -0.034,0.005 -0.052,0.005c-0.008,0 -0.015,0 -0.023,-0.001l-0.573,0.66c-0.046,0.052 -0.109,0.079 -0.174,0.079c-0.053,0 -0.107,-0.019 -0.15,-0.056c-0.096,-0.084 -0.106,-0.229 -0.023,-0.325l0.713,-0.82l0,-11.657c0,-0.029 0.005,-0.056 0.015,-0.082Zm3.409,11.6c-0.861,-0.823 -1.398,-1.981 -1.398,-3.263c0,-2.489 2.025,-4.514 4.514,-4.514c2.489,0 4.514,2.025 4.514,4.514c0,1.266 -0.524,2.413 -1.368,3.233l1.083,0.884c0.098,0.08 0.113,0.225 0.033,0.323c-0.046,0.056 -0.112,0.084 -0.179,0.084c-0.051,0 -0.102,-0.017 -0.145,-0.051l-1.117,-0.912c-0.008,-0.007 -0.016,-0.014 -0.023,-0.022c-0.77,0.61 -1.742,0.975 -2.798,0.975c-1.04,0 -1.999,-0.354 -2.763,-0.946l-1.109,0.905c-0.042,0.034 -0.094,0.051 -0.145,0.051c-0.066,0 -0.133,-0.028 -0.178,-0.084c-0.08,-0.098 -0.066,-0.243 0.033,-0.323l1.046,-0.854Zm9.985,-7.023l-1.607,0c-0.127,0 -0.229,-0.103 -0.229,-0.229c0,-0.127 0.102,-0.23 0.229,-0.23l3.737,0c0.127,0 0.23,0.103 0.23,0.23c0,0.126 -0.103,0.229 -0.23,0.229l-1.707,0c0.011,0.028 0.018,0.058 0.018,0.09l0,6.974l0.713,0.82c0.083,0.096 0.073,0.241 -0.023,0.324c-0.043,0.038 -0.097,0.057 -0.15,0.057c-0.065,0 -0.128,-0.027 -0.174,-0.079l-0.573,-0.66c-0.008,0.001 -0.015,0.001 -0.023,0.001c-0.018,0 -0.035,-0.002 -0.052,-0.006l-0.695,0.678c-0.091,0.089 -0.236,0.087 -0.325,-0.004c-0.089,-0.091 -0.087,-0.236 0.004,-0.325l0.838,-0.817l0,-6.963c0,-0.032 0.007,-0.062 0.019,-0.09Zm-6.869,-0.295c-2.236,0 -4.055,1.819 -4.055,4.055c0,2.235 1.819,4.054 4.055,4.054c2.236,0 4.054,-1.819 4.054,-4.054c0,-2.236 -1.818,-4.055 -4.054,-4.055Zm0,7.609c-1.979,0 -3.589,-1.609 -3.589,-3.588c0,-1.979 1.61,-3.589 3.589,-3.589c1.979,0 3.588,1.61 3.588,3.589c0,1.979 -1.609,3.588 -3.588,3.588Zm0,-6.717c-1.726,0 -3.129,1.403 -3.129,3.129c0,1.725 1.403,3.129 3.129,3.129c1.725,0 3.129,-1.404 3.129,-3.129c0,-1.726 -1.404,-3.129 -3.129,-3.129Zm-4.452,-0.531c-0.256,0 -0.343,-0.241 -0.38,-0.344l-0.712,-1.974c-0.133,-0.369 0.032,-0.517 0.194,-0.575l3.558,-1.283c0.046,-0.017 0.092,-0.025 0.137,-0.025c0.255,0 0.342,0.241 0.38,0.344l0.711,1.974c0.133,0.37 -0.032,0.517 -0.193,0.575l-3.559,1.283c-0.046,0.017 -0.092,0.025 -0.136,0.025Zm8.614,-0.069c-0.045,0 -0.091,-0.008 -0.137,-0.025l-3.558,-1.283c-0.162,-0.058 -0.327,-0.206 -0.194,-0.575l0.712,-1.974c0.037,-0.103 0.124,-0.345 0.379,-0.345c0.045,0 0.091,0.009 0.137,0.026l3.558,1.282c0.162,0.059 0.327,0.206 0.194,0.576l-0.712,1.974c-0.037,0.103 -0.124,0.344 -0.379,0.344Zm-5.224,-1.842l-3.408,1.216l0.07,0.195c0.002,0.005 0.004,0.01 0.006,0.015l3.403,-1.227c-0.001,-0.005 -0.003,-0.01 -0.005,-0.015l-0.066,-0.184Zm1.833,-0.069l-0.066,0.183c-0.002,0.006 -0.003,0.011 -0.005,0.016l3.404,1.227c0.001,-0.005 0.003,-0.01 0.005,-0.015l0.07,-0.195l-3.408,-1.216Zm8.228,1.275l-3.737,0c-0.127,0 -0.229,-0.103 -0.229,-0.23c0,-0.127 0.102,-0.23 0.229,-0.23l3.737,0c0.127,0 0.23,0.103 0.23,0.23c0,0.127 -0.103,0.23 -0.23,0.23Zm-13.881,-1.134l0.256,0.712l3.408,-1.216l-0.261,-0.723l-3.403,1.227Zm5.809,-0.573l3.408,1.216l0.257,-0.712l-3.404,-1.227l-0.261,0.723Zm-2.562,-1.086l-0.073,-0.203c-0.002,-0.005 -0.003,-0.01 -0.005,-0.015l-3.404,1.227c0.002,0.005 0.004,0.01 0.006,0.015l0.073,0.203l3.403,-1.227Zm6.382,1.158l0.074,-0.203c0.002,-0.005 0.003,-0.011 0.005,-0.015l-3.404,-1.227c-0.001,0.004 -0.003,0.009 -0.005,0.015l-0.073,0.203l3.403,1.227Z" style="fill-rule:nonzero;"/></svg>