<?xml version="1.0" encoding="UTF-8" standalone="no"?><!DOCTYPE svg PUBLIC "-//W3C//DTD SVG 1.1//EN" "http://www.w3.org/Graphics/SVG/1.1/DTD/svg11.dtd"><svg width="100%" height="100%" viewBox="0 0 417 226" version="1.1" xmlns="http://www.w3.org/2000/svg" xmlns:xlink="http://www.w3.org/1999/xlink" xml:space="preserve" xmlns:serif="http://www.serif.com/" style="fill-rule:evenodd;clip-rule:evenodd;stroke-linejoin:round;stroke-miterlimit:1.41421;"><path id="XP" d="M323.901,225.102l-190.544,0l0,-45.143l11.875,0l-15.46,-15.459l47.355,-47.355l62.688,62.689l7.614,0l0,-134.565l-8.995,0l-134.691,134.69l12.328,0l0,45.143l-116.071,0l0,-45.143l9.035,0l68.098,-68.098l-66.631,-66.631l-10.502,0l0,-45.144l116.071,0l0,45.144l-10.86,0l19.277,19.276l19.276,-19.276l-10.407,0l0,-45.144l101.166,0l0,-0.086l106.679,0c41.65,0 75.465,33.815 75.465,75.464c0,41.65 -33.814,75.464 -75.465,75.465l-19.278,0l0,-66.182l19.278,0c5.107,0 9.253,-4.146 9.253,-9.252c0,-5.107 -4.146,-9.253 -9.253,-9.253l-26.804,0l0,113.592l9.503,0l0,45.268Z"/></svg>