<?xml version="1.0" encoding="UTF-8" standalone="no"?><!DOCTYPE svg PUBLIC "-//W3C//DTD SVG 1.1//EN" "http://www.w3.org/Graphics/SVG/1.1/DTD/svg11.dtd"><svg width="100%" height="100%" viewBox="0 0 17 17" version="1.1" xmlns="http://www.w3.org/2000/svg" xmlns:xlink="http://www.w3.org/1999/xlink" xml:space="preserve" xmlns:serif="http://www.serif.com/" style="fill-rule:evenodd;clip-rule:evenodd;stroke-linejoin:round;stroke-miterlimit:1.41421;"><path d="M8.124,0l0.945,0.945l1.158,-0.668l0.668,1.157l1.291,-0.346l0.346,1.292l1.337,0l0,1.336l1.291,0.346l-0.346,1.291l1.158,0.669l-0.669,1.157l0.945,0.945l-0.945,0.945l0.669,1.158l-1.158,0.668l0.346,1.291l-1.291,0.346l0,1.337l-1.337,0l-0.346,1.291l-1.291,-0.346l-0.668,1.158l-1.158,-0.669l-0.945,0.945l-0.945,-0.945l-1.157,0.669l-0.669,-1.158l-1.291,0.346l-0.346,-1.291l-1.336,0l0,-1.337l-1.292,-0.346l0.346,-1.291l-1.157,-0.668l0.668,-1.158l-0.945,-0.945l0.945,-0.945l-0.668,-1.157l1.157,-0.669l-0.346,-1.291l1.292,-0.346l0,-1.336l1.336,0l0.346,-1.292l1.291,0.346l0.669,-1.157l1.157,0.668l0.945,-0.945Zm-3.213,5.421l-2.248,0l0,5.407l0.85,0l0,-2.233l1.097,0l0,-0.772l-1.097,0l0,-1.63l1.398,0l0,-0.772Zm5.832,0l-2.317,0l0,5.407l2.317,0l0,-0.773l-1.468,0l0,-1.583l1.167,0l0,-0.773l-1.167,0l0,-1.506l1.468,0l0,-0.772Zm2.843,0l-2.318,0l0,5.407l2.318,0l0,-0.773l-1.468,0l0,-1.583l1.166,0l0,-0.773l-1.166,0l0,-1.506l1.468,0l0,-0.772Zm-6.983,0l-1.283,0l0,5.407l0.85,0l0,-2.202l0.293,0c0.387,0 0.557,0.186 0.557,0.688l0,0.85c0,0.44 0.031,0.525 0.077,0.664l0.865,0c-0.085,-0.201 -0.093,-0.394 -0.093,-0.657l0,-0.834c0,-0.564 -0.139,-0.973 -0.564,-1.151c0.379,-0.178 0.557,-0.541 0.557,-1.097l0,-0.425c0,-0.834 -0.379,-1.243 -1.259,-1.243Zm-0.101,2.433l-0.332,0l0,-1.661l0.409,0c0.302,0 0.433,0.17 0.433,0.556l0,0.533c0,0.433 -0.193,0.572 -0.51,0.572Z"/></svg>