<?xml version="1.0" encoding="UTF-8" standalone="no"?><!DOCTYPE svg PUBLIC "-//W3C//DTD SVG 1.1//EN" "http://www.w3.org/Graphics/SVG/1.1/DTD/svg11.dtd"><svg width="100%" height="100%" viewBox="0 0 8 8" version="1.1" xmlns="http://www.w3.org/2000/svg" xmlns:xlink="http://www.w3.org/1999/xlink" xml:space="preserve" xmlns:serif="http://www.serif.com/" style="fill-rule:evenodd;clip-rule:evenodd;stroke-linejoin:round;stroke-miterlimit:1.41421;"><path d="M1.275,4.324l-0.682,0.682l-0.459,0.46l0.746,0l-0.373,1.119l1.12,-0.373l0,0.746l0.58,-0.58l0.561,-0.561c-0.386,-0.053 -0.729,-0.22 -1,-0.492c-0.272,-0.272 -0.439,-0.615 -0.493,-1.001Zm4.27,-2.776c0.309,0.308 0.309,0.81 0,1.119c-0.309,0.309 -0.81,0.309 -1.119,0c-0.31,-0.309 -0.31,-0.81 0,-1.119c0.309,-0.309 0.81,-0.309 1.119,0Zm1.493,-1.493c0.187,0.56 -0.058,2.67 -1.397,4.009c-0.077,0.077 -0.154,0.149 -0.231,0.219l0.067,0.676c0.043,0.438 -0.145,0.835 -0.512,1.079l-1.659,1.107l-0.141,-1.837c-0.388,-0.012 -0.725,-0.149 -0.979,-0.402c-0.252,-0.252 -0.388,-0.586 -0.402,-0.971l-1.784,-0.114l1.056,-1.667c0.241,-0.381 0.65,-0.579 1.099,-0.534l0.651,0.067c0.07,-0.079 0.144,-0.157 0.222,-0.235c1.34,-1.339 3.45,-1.583 4.01,-1.397Z"/></svg>