<?xml version="1.0" encoding="UTF-8" standalone="no"?><!DOCTYPE svg PUBLIC "-//W3C//DTD SVG 1.1//EN" "http://www.w3.org/Graphics/SVG/1.1/DTD/svg11.dtd"><svg width="100%" height="100%" viewBox="0 0 8 9" version="1.1" xmlns="http://www.w3.org/2000/svg" xmlns:xlink="http://www.w3.org/1999/xlink" xml:space="preserve" xmlns:serif="http://www.serif.com/" style="fill-rule:evenodd;clip-rule:evenodd;stroke-linejoin:round;stroke-miterlimit:1.41421;"><g><path d="M4.407,4.799l0,3.217l2.646,0c0.344,0 0.623,-0.278 0.623,-0.623l0,-2.594l-3.269,0Z" style="fill-rule:nonzero;"/><path d="M3.471,4.799l-3.268,0l0,2.594c0,0.345 0.279,0.623 0.623,0.623l2.645,0l0,-3.217Z" style="fill-rule:nonzero;"/><path d="M7.256,2.36l-1.17,0c0.162,-0.078 0.297,-0.158 0.379,-0.24c0.482,-0.482 0.482,-1.264 0,-1.745c-0.241,-0.241 -0.557,-0.362 -0.873,-0.362c-0.316,0 -0.632,0.121 -0.873,0.362c-0.2,0.2 -0.393,0.694 -0.55,1.203c-0.073,-0.02 -0.149,-0.034 -0.228,-0.034c-0.079,0 -0.155,0.014 -0.228,0.034c-0.158,-0.514 -0.352,-1.015 -0.554,-1.217c-0.241,-0.241 -0.557,-0.361 -0.873,-0.361c-0.316,0 -0.632,0.12 -0.873,0.361c-0.482,0.483 -0.482,1.264 0,1.746c0.086,0.087 0.232,0.171 0.406,0.253l-1.196,0c-0.344,0 -0.623,0.278 -0.623,0.622l0,0.53c0,0.344 0.279,0.623 0.623,0.623l2.848,0l0,-1.751l0.936,0l0,1.751l2.849,0c0.344,0 0.623,-0.279 0.623,-0.623l0,-0.53c0,-0.344 -0.279,-0.622 -0.623,-0.622Zm-2.096,-1.544c0.115,-0.116 0.269,-0.179 0.432,-0.179c0.163,0 0.316,0.063 0.432,0.179c0.115,0.115 0.178,0.268 0.178,0.431c0,0.163 -0.063,0.317 -0.178,0.431c-0.128,0.122 -0.633,0.311 -1.257,0.488c-0.018,-0.061 -0.042,-0.118 -0.072,-0.172c0.17,-0.588 0.349,-1.055 0.465,-1.178Zm-3.306,-0.013c0.115,-0.116 0.269,-0.179 0.432,-0.179c0.163,0 0.316,0.063 0.431,0.178c0.118,0.124 0.298,0.598 0.469,1.191c-0.028,0.051 -0.05,0.105 -0.068,0.161c-0.627,-0.176 -1.135,-0.367 -1.264,-0.488c-0.238,-0.238 -0.238,-0.625 0,-0.863Z" style="fill-rule:nonzero;"/></g></svg>