<?xml version="1.0" encoding="UTF-8" standalone="no"?><!DOCTYPE svg PUBLIC "-//W3C//DTD SVG 1.1//EN" "http://www.w3.org/Graphics/SVG/1.1/DTD/svg11.dtd"><svg width="100%" height="100%" viewBox="0 0 16 16" version="1.1" xmlns="http://www.w3.org/2000/svg" xmlns:xlink="http://www.w3.org/1999/xlink" xml:space="preserve" xmlns:serif="http://www.serif.com/" style="fill-rule:evenodd;clip-rule:evenodd;stroke-linejoin:round;stroke-miterlimit:1.41421;"><path d="M12.756,0.669c-0.126,-0.098 -0.232,-0.227 -0.264,-0.32c-0.055,-0.158 0.074,-0.349 0.251,-0.349c0.164,0.004 0.333,0.122 0.441,0.27c0.112,-0.067 0.242,-0.102 0.375,-0.101c0.483,0.019 0.863,0.598 1.292,1.032c0.219,0.226 0.256,0.592 0.095,0.862c0.201,0.241 0.263,0.606 -0.048,0.623c-0.125,0.007 -0.262,-0.064 -0.371,-0.167c-0.056,0.057 -0.112,0.113 -0.168,0.17c0.15,0.168 0.224,0.395 0.1,0.531c-0.138,0.15 -0.35,0.05 -0.51,-0.119c-0.069,0.069 -0.138,0.138 -0.207,0.207c0.149,0.168 0.222,0.395 0.098,0.53c-0.146,0.16 -0.378,0.035 -0.541,-0.155c-0.17,0.072 -0.367,0.077 -0.542,0.009l-3.14,3.14c0.144,0.178 0.276,0.413 0.376,0.592c0.566,1.015 0.596,2.403 -0.471,3.269c-0.574,0.466 -1.499,0.451 -1.842,1.248c-0.185,0.432 -0.14,0.935 -0.29,1.4c-0.334,1.03 -1.294,1.811 -2.383,1.967c-2.117,0.304 -4.17,-1.376 -4.796,-3.204c-0.479,-1.4 -0.175,-3.17 1.251,-4.012c0.422,-0.249 0.918,-0.334 1.397,-0.4c0.51,-0.074 0.98,-0.397 1.23,-0.922c0.228,-0.479 0.337,-0.976 0.825,-1.395c0.416,-0.356 0.944,-0.572 1.504,-0.566c0.73,0.018 1.417,0.375 2.012,0.835l3.165,-3.165c-0.083,-0.173 -0.108,-0.344 -0.044,-0.512c-0.281,-0.224 -0.428,-0.739 -0.039,-0.73c0.158,0.007 0.309,0.127 0.408,0.274c0.068,-0.07 0.138,-0.14 0.207,-0.21c-0.121,-0.103 -0.221,-0.239 -0.253,-0.334c-0.055,-0.157 0.074,-0.349 0.251,-0.349c0.146,0.003 0.313,0.114 0.428,0.254c0.068,-0.067 0.135,-0.135 0.203,-0.203Zm-4.701,5.349c-0.022,-0.017 -0.044,-0.034 -0.067,-0.05c-0.485,-0.353 -1.041,-0.636 -1.628,-0.634c-0.644,0.012 -1.278,0.413 -1.536,0.985c-0.343,0.763 -0.697,1.656 -1.65,1.852c-1.019,0.211 -2.175,0.46 -2.561,1.798c-0.371,1.285 0.222,2.67 1.099,3.602c0,0 0.301,0.283 0.529,0.449c0.274,0.2 0.57,0.369 0.882,0.501c0.103,0.043 0.208,0.083 0.315,0.117c1.309,0.427 3.112,0.046 3.505,-1.652c0.207,-0.893 0.284,-1.891 1.528,-2.363c0.751,-0.286 1.417,-0.873 1.42,-1.734c0.002,-0.611 -0.301,-1.18 -0.649,-1.662l-2.549,2.563c0.068,1.082 -1.534,1.902 -2.32,0.902c-0.612,-0.777 0.008,-2.208 1.13,-2.122l2.552,-2.552Zm-5.045,5.025c0.064,0.002 0.125,0.027 0.173,0.07c0.334,0.325 0.656,0.662 0.983,0.993c0.173,0.181 -0.081,0.634 -0.366,0.377c-0.334,-0.325 -0.656,-0.662 -0.983,-0.993c-0.145,-0.152 -0.059,-0.449 0.193,-0.447Zm2.503,-1.929c-0.048,-0.011 -0.097,-0.025 -0.154,-0.022c-0.66,0.029 -1.022,1.124 -0.317,1.487c0.48,0.247 1.154,-0.166 1.126,-0.749c-0.03,-0.043 -0.053,-0.094 -0.064,-0.153c-0.058,-0.278 -0.291,-0.502 -0.572,-0.551c0,0 -0.007,-0.004 -0.019,-0.012Zm6.388,-6.198l-3.367,3.367l-2.469,2.492c0.105,0.064 0.108,0.074 0.148,0.108c0.11,0.094 0.203,0.209 0.275,0.335l5.854,-5.853c-0.154,-0.149 -0.308,-0.299 -0.441,-0.449Zm1.932,-0.421c0.221,-0.224 0.438,-0.452 0.651,-0.684c0.057,-0.065 0.056,-0.169 -0.001,-0.235c-0.265,-0.289 -0.542,-0.569 -0.829,-0.837c-0.032,-0.029 -0.073,-0.045 -0.117,-0.044c-0.041,0.001 -0.081,0.018 -0.111,0.046c-0.457,0.449 -0.919,0.893 -1.352,1.365c-0.046,0.053 -0.055,0.131 -0.026,0.194c0.016,0.01 0.034,0.023 0.055,0.042l0.816,0.817c0.014,0.016 0.026,0.032 0.036,0.05c0.058,0.022 0.127,0.012 0.174,-0.03c0.007,-0.007 0.015,-0.014 0.022,-0.021c0.007,-0.008 0.016,-0.016 0.026,-0.024c0.191,-0.18 0.38,-0.363 0.566,-0.549c0.015,-0.04 0.044,-0.071 0.09,-0.09Z" style="fill-rule:nonzero;"/></svg>