<?xml version="1.0" encoding="UTF-8" standalone="no"?><!DOCTYPE svg PUBLIC "-//W3C//DTD SVG 1.1//EN" "http://www.w3.org/Graphics/SVG/1.1/DTD/svg11.dtd"><svg width="100%" height="100%" viewBox="0 0 12 12" version="1.1" xmlns="http://www.w3.org/2000/svg" xmlns:xlink="http://www.w3.org/1999/xlink" xml:space="preserve" xmlns:serif="http://www.serif.com/" style="fill-rule:evenodd;clip-rule:evenodd;stroke-linejoin:round;stroke-miterlimit:1.41421;"><path d="M9.918,11.208l-8.628,0c-0.712,0 -1.29,-0.578 -1.29,-1.29l0,-8.628c0,-0.712 0.578,-1.29 1.29,-1.29l8.628,0c0.712,0 1.29,0.578 1.29,1.29l0,8.628c0,0.712 -0.578,1.29 -1.29,1.29Zm-2.879,-9.97l-0.003,0.485c-0.472,-0.517 -0.881,-0.626 -1.736,-0.626c-1.533,0 -2.835,1.277 -2.835,3.282c0,1.8 1.098,3.052 2.643,3.052c0.715,0 1.248,-0.213 1.711,-0.69l0,0.281c0,1.149 -0.702,1.435 -1.621,1.435c-0.728,0 -1.418,-0.243 -1.814,-0.473l-0.425,1.554c0.562,0.319 1.43,0.485 2.247,0.485c0.92,0 1.852,-0.179 2.541,-0.766c0.703,-0.626 0.988,-1.481 0.988,-2.682c0,0 0.01,-5.305 0.008,-5.337l-1.704,0Zm-0.245,3.46c0,0.166 -0.013,0.37 -0.064,0.511c-0.128,0.46 -0.524,0.792 -1.022,0.792c-0.817,0 -1.277,-0.728 -1.277,-1.66c0,-1.137 0.575,-1.775 1.277,-1.775c0.537,0 0.907,0.344 1.048,0.855c0.025,0.102 0.038,0.23 0.038,0.358l0,0.919Z"/></svg>