<?xml version="1.0" encoding="UTF-8" standalone="no"?><!DOCTYPE svg PUBLIC "-//W3C//DTD SVG 1.1//EN" "http://www.w3.org/Graphics/SVG/1.1/DTD/svg11.dtd"><svg width="100%" height="100%" viewBox="0 0 240 233" version="1.1" xmlns="http://www.w3.org/2000/svg" xmlns:xlink="http://www.w3.org/1999/xlink" xml:space="preserve" style="fill-rule:evenodd;clip-rule:evenodd;stroke-linejoin:round;stroke-miterlimit:1.41421;"><g><path d="M184.21,76.46c-0.487,0 -0.961,0.057 -1.448,0.07c0.97,5.097 1.514,10.344 1.51,15.722c-0.022,18.765 -4.369,33.284 -15.068,50.302c-3.684,5.857 -12.952,19.471 -23.485,34.759c13.51,20.012 38.25,55.557 38.25,55.557c0,0 38.715,-55.232 45.911,-66.674c7.187,-11.432 10.107,-21.184 10.12,-33.784c0.039,-30.865 -24.938,-55.908 -55.79,-55.952Z" style="fill-rule:nonzero;"/><path d="M83.305,0c-45.946,-0.07 -83.239,37.126 -83.305,83.063c-0.026,18.765 4.263,33.284 14.923,50.341c10.66,17.053 68.022,99.466 68.022,99.466c0,0 57.642,-82.233 68.35,-99.268c10.704,-17.018 15.046,-31.537 15.068,-50.302c0.066,-45.942 -37.121,-83.234 -83.058,-83.3Zm-0.119,109.371c-16.684,0 -30.206,-13.523 -30.206,-30.207c0,-16.683 13.522,-30.206 30.206,-30.206c16.684,0 30.206,13.523 30.206,30.206c0,16.68 -13.527,30.207 -30.206,30.207Z" style="fill-rule:nonzero;"/></g></svg>