<?xml version="1.0" encoding="UTF-8" standalone="no"?><!DOCTYPE svg PUBLIC "-//W3C//DTD SVG 1.1//EN" "http://www.w3.org/Graphics/SVG/1.1/DTD/svg11.dtd"><svg width="100%" height="100%" viewBox="0 0 10 9" version="1.1" xmlns="http://www.w3.org/2000/svg" xmlns:xlink="http://www.w3.org/1999/xlink" xml:space="preserve" xmlns:serif="http://www.serif.com/" style="fill-rule:evenodd;clip-rule:evenodd;stroke-linejoin:round;stroke-miterlimit:1.41421;"><path id="Shape" d="M4.799,0c-1.6,0 -3.017,0.868 -3.748,2.194l-1.051,-1.051l0,2.97l2.971,0l-1.28,-1.279c0.594,-1.143 1.737,-1.92 3.108,-1.92c1.874,0 3.428,1.554 3.428,3.428c0,1.874 -1.554,3.428 -3.428,3.428c-1.508,0 -2.742,-0.96 -3.245,-2.286l-0.96,0c0.503,1.829 2.194,3.2 4.205,3.2c2.422,0 4.342,-1.966 4.342,-4.342c0,-2.377 -1.966,-4.342 -4.342,-4.342Zm-0.686,2.285l0,2.331l2.148,1.28l0.366,-0.594l-1.828,-1.097l0,-1.92l-0.686,0Z" style="fill-opacity:0.9;"/></svg>