<?xml version="1.0" encoding="UTF-8" standalone="no"?><!DOCTYPE svg PUBLIC "-//W3C//DTD SVG 1.1//EN" "http://www.w3.org/Graphics/SVG/1.1/DTD/svg11.dtd"><svg width="100%" height="100%" viewBox="0 0 12 8" version="1.1" xmlns="http://www.w3.org/2000/svg" xmlns:xlink="http://www.w3.org/1999/xlink" xml:space="preserve" xmlns:serif="http://www.serif.com/" style="fill-rule:evenodd;clip-rule:evenodd;stroke-linejoin:round;stroke-miterlimit:1.41421;"><path d="M4.752,1.29l0,-1.29l2.008,2.099l-2.008,2.098l0,-1.234l-3.126,0l0,2.963l8.259,0l0,-2.963l-2.032,0l0,-1.668c0.718,0.005 1.436,0.011 2.153,0.021c0.18,0.007 0.356,0.04 0.523,0.108c0.405,0.163 0.73,0.502 0.88,0.918c0.057,0.16 0.086,0.327 0.092,0.497c0.014,1.07 0.014,2.14 0,3.21c-0.006,0.171 -0.035,0.338 -0.092,0.498c-0.15,0.416 -0.475,0.755 -0.88,0.918c-0.167,0.067 -0.343,0.101 -0.523,0.108c-2.833,0.037 -5.668,0.037 -8.501,0c-0.18,-0.007 -0.356,-0.041 -0.523,-0.108c-0.405,-0.163 -0.73,-0.502 -0.879,-0.918c-0.058,-0.16 -0.087,-0.327 -0.093,-0.498c-0.013,-1.07 -0.013,-2.14 0,-3.21c0.006,-0.17 0.035,-0.337 0.093,-0.497c0.149,-0.416 0.474,-0.755 0.879,-0.918c0.167,-0.068 0.343,-0.101 0.523,-0.108c1.082,-0.014 2.164,-0.023 3.247,-0.026Z"/></svg>