<?xml version="1.0" encoding="UTF-8" standalone="no"?><!DOCTYPE svg PUBLIC "-//W3C//DTD SVG 1.1//EN" "http://www.w3.org/Graphics/SVG/1.1/DTD/svg11.dtd"><svg width="100%" height="100%" viewBox="0 0 10 10" version="1.1" xmlns="http://www.w3.org/2000/svg" xmlns:xlink="http://www.w3.org/1999/xlink" xml:space="preserve" xmlns:serif="http://www.serif.com/" style="fill-rule:evenodd;clip-rule:evenodd;stroke-linejoin:round;stroke-miterlimit:1.41421;"><path d="M7.399,0.199c0.94,0.391 1.602,1.319 1.602,2.401c0,1.436 -1.164,2.6 -2.6,2.6c-0.429,0 -0.834,-0.104 -1.19,-0.288l-1.664,1.666l0.934,0.934c0.16,0.16 0.16,0.416 0,0.576l-1.393,1.392c-0.159,0.16 -0.416,0.16 -0.575,0l-0.934,-0.934l-0.224,0.222c-0.308,0.31 -0.812,0.31 -1.122,0c-0.311,-0.31 -0.311,-0.814 0,-1.124l3.855,-3.854c-0.183,-0.356 -0.287,-0.762 -0.287,-1.19c0,-1.436 1.163,-2.6 2.6,-2.6c0.125,0 0.247,0.009 0.368,0.026l0,1.644c-0.114,-0.045 -0.239,-0.07 -0.368,-0.07c-0.552,0 -1,0.448 -1,1c0,0.552 0.448,1 1,1c0.552,0 0.999,-0.448 0.999,-1c0,-0.02 0,-0.039 -0.001,-0.059l0,-2.342Z" style="fill:#010101;"/></svg>