<?xml version="1.0" encoding="UTF-8" standalone="no"?><!DOCTYPE svg PUBLIC "-//W3C//DTD SVG 1.1//EN" "http://www.w3.org/Graphics/SVG/1.1/DTD/svg11.dtd"><svg width="100%" height="100%" viewBox="0 0 10 10" version="1.1" xmlns="http://www.w3.org/2000/svg" xmlns:xlink="http://www.w3.org/1999/xlink" xml:space="preserve" xmlns:serif="http://www.serif.com/" style="fill-rule:evenodd;clip-rule:evenodd;stroke-linejoin:round;stroke-miterlimit:1.41421;"><path id="XMLID_874_" d="M0.299,7.165l-0.15,0c-0.082,0 -0.149,-0.066 -0.149,-0.149l0,-4.478c0,-1.4 1.138,-2.538 2.538,-2.538c1.399,0 2.537,1.138 2.537,2.538c0,0.46 0.311,0.863 0.755,0.982l1.618,0.432c1.24,0.33 2.106,1.457 2.106,2.74l0,0.324c0,0.083 -0.067,0.149 -0.149,0.149l-0.15,0l0,1.642c0,0.412 -0.335,0.747 -0.746,0.747l-7.464,0c-0.412,0 -0.746,-0.335 -0.746,-0.747l0,-1.642Zm0.895,0l-0.597,0l0,1.642c0,0.247 0.201,0.448 0.448,0.448l0.597,0l0,-0.746l-0.298,0c-0.083,0 -0.15,-0.067 -0.15,-0.149l0,-1.195Zm1.493,0l-0.299,0l0,1.195c0,0.082 -0.066,0.149 -0.149,0.149l-0.298,0l0,0.746l1.194,0l0,-0.746l-0.299,0c-0.082,0 -0.149,-0.067 -0.149,-0.149l0,-1.195Zm1.493,0l-0.299,0l0,1.195c0,0.082 -0.067,0.149 -0.149,0.149l-0.299,0l0,0.746l1.195,0l0,-0.746l-0.299,0c-0.082,0 -0.149,-0.067 -0.149,-0.149l0,-1.195Zm1.493,0l-0.299,0l0,1.195c0,0.082 -0.067,0.149 -0.149,0.149l-0.299,0l0,0.746l1.194,0l0,-0.746l-0.298,0c-0.083,0 -0.149,-0.067 -0.149,-0.149l0,-1.195Zm1.492,0l-0.298,0l0,1.195c0,0.082 -0.067,0.149 -0.149,0.149l-0.299,0l0,0.746l1.194,0l0,-0.746l-0.298,0c-0.083,0 -0.15,-0.067 -0.15,-0.149l0,-1.195Zm1.792,0l-0.597,0l0,1.195c0,0.082 -0.067,0.149 -0.15,0.149l-0.298,0l0,0.746l0.597,0c0.247,0 0.448,-0.201 0.448,-0.448l0,-1.642Zm-1.493,1.045l0.597,0l0,-1.045l-0.597,0l0,1.045Zm-1.493,0l0.597,0l0,-1.045l-0.597,0l0,1.045Zm-1.493,0l0.597,0l0,-1.045l-0.597,0l0,1.045Zm-1.492,0l0.597,0l0,-1.045l-0.597,0l0,1.045Zm-1.493,0l0.597,0l0,-1.045l-0.597,0l0,1.045Zm-1.194,-1.343l8.956,0l0,-0.175c0,-1.148 -0.774,-2.156 -1.884,-2.452l-1.618,-0.432c-0.575,-0.153 -0.976,-0.675 -0.976,-1.27c0,-1.235 -1.005,-2.239 -2.239,-2.239c-1.235,0 -2.239,1.004 -2.239,2.239l0,4.329Zm4.179,-0.299c-0.038,0 -0.077,-0.016 -0.106,-0.043c-0.027,-0.028 -0.043,-0.066 -0.043,-0.106c0,-0.04 0.016,-0.078 0.043,-0.106c0.056,-0.055 0.156,-0.055 0.212,0c0.027,0.028 0.044,0.067 0.044,0.106c0,0.039 -0.017,0.078 -0.044,0.106c-0.028,0.027 -0.067,0.043 -0.106,0.043Zm0.597,0c-0.038,0 -0.077,-0.016 -0.106,-0.043c-0.026,-0.028 -0.043,-0.067 -0.043,-0.106c0,-0.039 0.017,-0.078 0.043,-0.106c0.056,-0.055 0.156,-0.055 0.212,0c0.027,0.028 0.044,0.067 0.044,0.106c0,0.039 -0.017,0.078 -0.044,0.106c-0.028,0.027 -0.067,0.043 -0.106,0.043Zm-1.194,0c-0.039,0 -0.077,-0.016 -0.106,-0.043c-0.027,-0.028 -0.043,-0.067 -0.043,-0.106c0,-0.039 0.016,-0.078 0.043,-0.106c0.057,-0.055 0.156,-0.055 0.212,0c0.027,0.028 0.044,0.066 0.044,0.106c0,0.039 -0.017,0.078 -0.044,0.106c-0.028,0.027 -0.067,0.043 -0.106,0.043Zm2.389,0c-0.039,0 -0.078,-0.016 -0.106,-0.043c-0.027,-0.028 -0.044,-0.067 -0.044,-0.106c0,-0.039 0.017,-0.078 0.044,-0.106c0.055,-0.055 0.155,-0.055 0.212,0c0.026,0.028 0.043,0.067 0.043,0.106c0,0.039 -0.017,0.078 -0.043,0.106c-0.029,0.027 -0.068,0.043 -0.106,0.043Zm-0.597,0c-0.039,0 -0.078,-0.016 -0.106,-0.043c-0.027,-0.028 -0.044,-0.066 -0.044,-0.106c0,-0.04 0.017,-0.078 0.044,-0.106c0.055,-0.055 0.156,-0.055 0.212,0c0.026,0.028 0.043,0.067 0.043,0.106c0,0.039 -0.017,0.078 -0.043,0.106c-0.029,0.027 -0.068,0.043 -0.106,0.043Zm-2.389,0c-0.039,0 -0.078,-0.016 -0.106,-0.043c-0.027,-0.028 -0.043,-0.067 -0.043,-0.106c0,-0.04 0.016,-0.078 0.043,-0.106c0.055,-0.055 0.155,-0.055 0.212,0c0.027,0.028 0.043,0.067 0.043,0.106c0,0.039 -0.016,0.078 -0.043,0.106c-0.028,0.027 -0.067,0.043 -0.106,0.043Zm2.389,-0.597c-0.041,0 -0.078,-0.016 -0.106,-0.045c-0.027,-0.027 -0.044,-0.064 -0.044,-0.104c0,-0.039 0.017,-0.078 0.044,-0.106c0.055,-0.055 0.155,-0.055 0.212,0c0.026,0.028 0.043,0.067 0.043,0.106c0,0.039 -0.017,0.077 -0.043,0.106c-0.029,0.027 -0.068,0.043 -0.106,0.043Zm0.597,0c-0.041,0 -0.078,-0.016 -0.106,-0.045c-0.027,-0.027 -0.044,-0.064 -0.044,-0.104c0,-0.041 0.017,-0.078 0.044,-0.106c0.055,-0.055 0.155,-0.055 0.212,0c0.026,0.028 0.043,0.067 0.043,0.106c0,0.039 -0.017,0.077 -0.043,0.106c-0.029,0.027 -0.068,0.043 -0.106,0.043Zm-1.195,0c-0.04,0 -0.077,-0.016 -0.106,-0.045c-0.026,-0.027 -0.043,-0.065 -0.043,-0.104c0,-0.039 0.017,-0.078 0.043,-0.106c0.057,-0.055 0.157,-0.055 0.212,0c0.027,0.028 0.044,0.067 0.044,0.106c0,0.039 -0.017,0.077 -0.044,0.106c-0.028,0.027 -0.067,0.043 -0.106,0.043Zm-0.597,0c-0.04,0 -0.079,-0.016 -0.106,-0.045c-0.027,-0.027 -0.043,-0.065 -0.043,-0.104c0,-0.039 0.016,-0.078 0.043,-0.106c0.056,-0.055 0.157,-0.055 0.212,0c0.027,0.028 0.044,0.067 0.044,0.106c0,0.039 -0.017,0.077 -0.044,0.106c-0.028,0.027 -0.067,0.043 -0.106,0.043Zm-1.194,0c-0.039,0 -0.078,-0.016 -0.106,-0.045c-0.027,-0.027 -0.043,-0.065 -0.043,-0.104c0,-0.039 0.016,-0.078 0.043,-0.106c0.057,-0.055 0.157,-0.055 0.212,0c0.027,0.028 0.043,0.067 0.043,0.106c0,0.039 -0.016,0.077 -0.043,0.106c-0.028,0.027 -0.067,0.043 -0.106,0.043Zm0.597,0c-0.04,0 -0.077,-0.016 -0.106,-0.045c-0.027,-0.027 -0.043,-0.065 -0.043,-0.104c0,-0.039 0.016,-0.078 0.043,-0.106c0.056,-0.055 0.157,-0.055 0.212,0c0.027,0.028 0.044,0.067 0.044,0.106c0,0.039 -0.017,0.077 -0.044,0.106c-0.028,0.027 -0.066,0.043 -0.106,0.043Zm-3.135,-0.373c-0.082,0 -0.149,-0.067 -0.149,-0.149l0,-2.911c0,-0.262 0.052,-0.516 0.153,-0.755c0.032,-0.076 0.12,-0.111 0.196,-0.079c0.075,0.032 0.111,0.119 0.079,0.195c-0.086,0.203 -0.129,0.418 -0.129,0.639l0,2.911c0,0.082 -0.067,0.149 -0.15,0.149Zm0.458,-4.106c-0.035,0 -0.071,-0.012 -0.1,-0.038c-0.061,-0.055 -0.066,-0.15 -0.011,-0.211c0.024,-0.026 0.048,-0.052 0.073,-0.077c0.058,-0.058 0.153,-0.058 0.211,0c0.058,0.058 0.058,0.153 0,0.211c-0.021,0.021 -0.042,0.043 -0.062,0.066c-0.029,0.032 -0.07,0.049 -0.111,0.049Z" style="fill-rule:nonzero;"/></svg>