<?xml version="1.0" encoding="UTF-8" standalone="no"?><!DOCTYPE svg PUBLIC "-//W3C//DTD SVG 1.1//EN" "http://www.w3.org/Graphics/SVG/1.1/DTD/svg11.dtd"><svg width="100%" height="100%" viewBox="0 0 12 12" version="1.1" xmlns="http://www.w3.org/2000/svg" xmlns:xlink="http://www.w3.org/1999/xlink" xml:space="preserve" xmlns:serif="http://www.serif.com/" style="fill-rule:evenodd;clip-rule:evenodd;stroke-linejoin:round;stroke-miterlimit:1.41421;"><path d="M9.918,11.208l-8.628,0c-0.712,0 -1.29,-0.578 -1.29,-1.29l0,-8.628c0,-0.712 0.578,-1.29 1.29,-1.29l8.628,0c0.712,0 1.29,0.578 1.29,1.29l0,8.628c0,0.712 -0.578,1.29 -1.29,1.29Zm-6.035,-1.185l0,-3.024c0.314,0.298 0.631,0.514 0.949,0.645c0.318,0.132 0.662,0.198 1.032,0.198c0.829,0 1.546,-0.322 2.152,-0.964c0.605,-0.643 0.907,-1.442 0.907,-2.397c0,-0.99 -0.292,-1.802 -0.878,-2.435c-0.586,-0.632 -1.297,-0.949 -2.134,-0.949c-0.385,0 -0.747,0.073 -1.085,0.218c-0.338,0.146 -0.652,0.364 -0.943,0.655l0,-0.708l-1.598,0l0,8.761l1.598,0Zm1.692,-7.44c-0.507,0 -0.928,0.173 -1.262,0.519c-0.334,0.346 -0.501,0.798 -0.501,1.356c0,0.57 0.167,1.03 0.501,1.382c0.334,0.352 0.755,0.528 1.262,0.528c0.491,0 0.905,-0.179 1.241,-0.537c0.336,-0.357 0.504,-0.813 0.504,-1.367c0,-0.551 -0.165,-1.002 -0.495,-1.354c-0.331,-0.351 -0.747,-0.527 -1.25,-0.527Z"/></svg>