<?xml version="1.0" encoding="UTF-8" standalone="no"?><!DOCTYPE svg PUBLIC "-//W3C//DTD SVG 1.1//EN" "http://www.w3.org/Graphics/SVG/1.1/DTD/svg11.dtd"><svg width="100%" height="100%" viewBox="0 0 6 8" version="1.1" xmlns="http://www.w3.org/2000/svg" xmlns:xlink="http://www.w3.org/1999/xlink" xml:space="preserve" xmlns:serif="http://www.serif.com/" style="fill-rule:evenodd;clip-rule:evenodd;stroke-linejoin:round;stroke-miterlimit:1.41421;"><path id="Podcast" d="M2.996,3.529c0.414,0 0.75,-0.317 0.75,-0.707c0,-0.39 -0.336,-0.706 -0.75,-0.706c-0.414,0 -0.75,0.316 -0.75,0.706c0,0.39 0.336,0.707 0.75,0.707Zm0,-2.472c-1.035,0 -1.874,0.79 -1.874,1.765c0,0.474 0.199,0.905 0.521,1.222c0.093,-0.14 0.22,-0.274 0.396,-0.376c-0.22,-0.221 -0.355,-0.519 -0.355,-0.846c0,-0.683 0.587,-1.236 1.312,-1.236c0.725,0 1.313,0.553 1.313,1.236c0,0.328 -0.136,0.626 -0.358,0.847c0.176,0.103 0.303,0.237 0.395,0.377c0.325,-0.317 0.524,-0.749 0.524,-1.224c0,-0.975 -0.839,-1.765 -1.874,-1.765Zm0,-1.057c-1.655,0 -2.996,1.264 -2.996,2.822c0,1.017 0.571,1.909 1.428,2.405c-0.017,-0.122 -0.028,-0.253 -0.028,-0.389c0,0 -0.001,-0.105 0.029,-0.257c-0.532,-0.421 -0.87,-1.053 -0.87,-1.759c0,-1.268 1.091,-2.296 2.437,-2.296c1.346,0 2.438,1.028 2.438,2.296c0,0.708 -0.34,1.34 -0.875,1.762c0.03,0.15 0.029,0.254 0.029,0.254c0,0.137 -0.011,0.269 -0.028,0.392c0.859,-0.496 1.432,-1.389 1.432,-2.408c0,-1.559 -1.341,-2.822 -2.996,-2.822Zm0,3.882c-0.569,0 -1.031,0.435 -1.031,0.971c0,0.537 0.462,2.292 1.031,2.292c0.57,0 1.031,-1.755 1.031,-2.292c0,-0.536 -0.461,-0.971 -1.031,-0.971Z"/></svg>