<?xml version="1.0" encoding="UTF-8" standalone="no"?><!DOCTYPE svg PUBLIC "-//W3C//DTD SVG 1.1//EN" "http://www.w3.org/Graphics/SVG/1.1/DTD/svg11.dtd"><svg width="100%" height="100%" viewBox="0 0 12 12" version="1.1" xmlns="http://www.w3.org/2000/svg" xmlns:xlink="http://www.w3.org/1999/xlink" xml:space="preserve" xmlns:serif="http://www.serif.com/" style="fill-rule:evenodd;clip-rule:evenodd;stroke-linejoin:round;stroke-miterlimit:1.41421;"><path d="M9.918,11.208l-8.628,0c-0.712,0 -1.29,-0.578 -1.29,-1.29l0,-8.628c0,-0.712 0.578,-1.29 1.29,-1.29l8.628,0c0.712,0 1.29,0.578 1.29,1.29l0,8.628c0,0.712 -0.578,1.29 -1.29,1.29Zm-4.242,-1.185l0,-4.429c0,-0.214 0.018,-0.429 0.053,-0.607c0.148,-0.695 0.638,-1.182 1.37,-1.329l0.01,-0.002l0.004,-0.001c0.049,-0.009 0.099,-0.017 0.15,-0.023l0,-0.001c0.104,-0.013 0.212,-0.019 0.324,-0.019c0.303,0 0.535,0.035 0.732,0.071l0,-2.506l0,0l0,-0.001c-0.215,-0.066 -0.374,-0.079 -0.577,-0.079c-0.838,0 -1.898,0.269 -2.488,1.185l-0.026,-0.926l0.001,-0.066l-2.339,0l0,0.003l0,0c0.035,0.75 0.071,1.588 0.071,2.873l0,5.851l0,0l0,0.006l2.715,0Z"/></svg>