<?xml version="1.0" encoding="UTF-8" standalone="no"?><!DOCTYPE svg PUBLIC "-//W3C//DTD SVG 1.1//EN" "http://www.w3.org/Graphics/SVG/1.1/DTD/svg11.dtd"><svg width="100%" height="100%" viewBox="0 0 8 8" version="1.1" xmlns="http://www.w3.org/2000/svg" xmlns:xlink="http://www.w3.org/1999/xlink" xml:space="preserve" xmlns:serif="http://www.serif.com/" style="fill-rule:evenodd;clip-rule:evenodd;stroke-linejoin:round;stroke-miterlimit:1.41421;"><path id="Drum" d="M7.137,3.568c-0.002,-0.2 -0.137,-0.376 -0.331,-0.428c-0.074,-0.57 -0.297,-1.11 -0.648,-1.565c0.04,-0.067 0.061,-0.143 0.061,-0.221c0,-0.238 -0.196,-0.434 -0.435,-0.434c-0.077,0 -0.154,0.021 -0.221,0.061c-0.454,-0.352 -0.994,-0.577 -1.564,-0.652c-0.051,-0.193 -0.228,-0.329 -0.428,-0.329c-0.2,0 -0.377,0.136 -0.428,0.329c-0.571,0.074 -1.112,0.298 -1.568,0.649c-0.067,-0.04 -0.143,-0.061 -0.221,-0.061c-0.238,0 -0.434,0.196 -0.434,0.434c0,0.078 0.021,0.154 0.061,0.221c-0.352,0.455 -0.577,0.995 -0.652,1.565c-0.193,0.051 -0.329,0.228 -0.329,0.428c0,0.2 0.136,0.377 0.329,0.428c0.074,0.571 0.298,1.112 0.649,1.567c-0.042,0.068 -0.064,0.147 -0.064,0.226c0,0.237 0.193,0.432 0.429,0.435l-0.071,0.172l-0.051,0.128c-0.02,0.051 -0.03,0.106 -0.03,0.162c0,0.244 0.201,0.446 0.446,0.446c0.176,0 0.337,-0.105 0.408,-0.266c0,-0.027 0.054,-0.155 0.116,-0.345c0.309,0.15 0.639,0.251 0.979,0.297c0.051,0.194 0.228,0.33 0.428,0.33c0.2,0 0.377,-0.136 0.428,-0.33c0.387,-0.05 0.762,-0.17 1.106,-0.354c0.072,0.226 0.125,0.378 0.137,0.408c0.071,0.161 0.232,0.266 0.408,0.266c0.245,0 0.446,-0.202 0.446,-0.446c0,-0.056 -0.01,-0.111 -0.03,-0.162l-0.054,-0.131l-0.08,-0.199c0.061,-0.02 0.117,-0.054 0.164,-0.098c0.143,-0.142 0.171,-0.365 0.068,-0.539c0.349,-0.453 0.571,-0.991 0.645,-1.558c0.196,-0.053 0.332,-0.232 0.331,-0.434Zm-1.559,1.763c-0.413,-1.002 -0.719,-1.704 -0.913,-2.081c0.099,-0.125 0.121,-0.294 0.06,-0.44c-0.06,-0.134 -0.265,-0.432 -0.509,-0.432c-0.038,0 -0.075,0.007 -0.11,0.021c-0.256,0.107 -0.297,0.559 -0.205,0.755c0.053,0.129 0.163,0.225 0.297,0.259c0.131,0.577 0.458,1.666 0.708,2.472c-0.786,0.459 -1.756,0.483 -2.563,0.062c0.252,-0.809 0.594,-1.945 0.731,-2.54c0.134,-0.034 0.245,-0.13 0.298,-0.258c0.08,-0.197 0.05,-0.649 -0.206,-0.756c-0.031,-0.01 -0.064,-0.015 -0.098,-0.015c-0.244,0 -0.449,0.298 -0.505,0.423c-0.061,0.145 -0.038,0.313 0.059,0.437c-0.202,0.401 -0.523,1.142 -0.96,2.203c-0.494,-0.5 -0.771,-1.176 -0.771,-1.879c0,-1.468 1.208,-2.676 2.676,-2.676c1.469,0 2.677,1.208 2.677,2.676c0,0.65 -0.237,1.278 -0.666,1.766l0,0.003Z" style="fill-rule:nonzero;"/></svg>