<?xml version="1.0" encoding="UTF-8" standalone="no"?><!DOCTYPE svg PUBLIC "-//W3C//DTD SVG 1.1//EN" "http://www.w3.org/Graphics/SVG/1.1/DTD/svg11.dtd"><svg width="100%" height="100%" viewBox="0 0 123 95" version="1.1" xmlns="http://www.w3.org/2000/svg" xmlns:xlink="http://www.w3.org/1999/xlink" xml:space="preserve" xmlns:serif="http://www.serif.com/" style="fill-rule:evenodd;clip-rule:evenodd;stroke-linejoin:round;stroke-miterlimit:1.41421;"><path d="M87.875,94.822l-53.134,0c-0.596,0 -1.085,-0.191 -1.469,-0.574c-0.383,-0.384 -0.574,-0.873 -0.574,-1.469l0,-4.087c0,-0.596 0.191,-1.086 0.574,-1.469c0.384,-0.383 0.873,-0.575 1.469,-0.575l22.48,0l0,-4.905l-47.003,0c-2.81,0 -5.215,-1 -7.216,-3.001c-2.001,-2.001 -3.002,-4.407 -3.002,-7.217l0,-61.307c0,-2.81 1.001,-5.215 3.002,-7.216c2.001,-2.001 4.406,-3.002 7.216,-3.002l102.18,0c2.81,0 5.215,1.001 7.216,3.002c2.001,2.001 3.002,4.406 3.002,7.216l0,61.307c0,2.81 -1.001,5.216 -3.002,7.217c-2.001,2.001 -4.406,3.001 -7.216,3.001l-47.003,0l0,4.905l22.48,0c0.596,0 1.086,0.192 1.469,0.575c0.383,0.383 0.574,0.873 0.574,1.469l0,4.087c0,0.596 -0.191,1.085 -0.574,1.469c-0.383,0.383 -0.873,0.574 -1.469,0.574Zm24.523,-86.648l-102.18,0c-0.554,0 -1.033,0.203 -1.437,0.607c-0.404,0.404 -0.607,0.883 -0.607,1.437l0,61.307c0,0.554 0.203,1.033 0.607,1.437c0.405,0.405 0.884,0.607 1.437,0.607l102.18,0c0.553,0 1.032,-0.202 1.437,-0.607c0.404,-0.404 0.607,-0.883 0.607,-1.437l0,-61.307c0,-0.554 -0.203,-1.033 -0.607,-1.437c-0.404,-0.404 -0.883,-0.607 -1.437,-0.607Zm-39.525,34.124l-22.569,12.542c-0.261,0.147 -0.484,0.164 -0.671,0.051c-0.187,-0.114 -0.281,-0.318 -0.281,-0.612l0,-25.016c0,-0.295 0.094,-0.499 0.281,-0.612c0.187,-0.113 0.41,-0.096 0.671,0.051l22.569,12.542c0.26,0.147 0.391,0.323 0.391,0.527c0,0.204 -0.131,0.379 -0.391,0.527Z"/></svg>