<?xml version="1.0" encoding="UTF-8" standalone="no"?><!DOCTYPE svg PUBLIC "-//W3C//DTD SVG 1.1//EN" "http://www.w3.org/Graphics/SVG/1.1/DTD/svg11.dtd"><svg width="100%" height="100%" viewBox="0 0 417 323" version="1.1" xmlns="http://www.w3.org/2000/svg" xmlns:xlink="http://www.w3.org/1999/xlink" xml:space="preserve" xmlns:serif="http://www.serif.com/" style="fill-rule:evenodd;clip-rule:evenodd;stroke-linejoin:round;stroke-miterlimit:1.41421;"><path id="shows" d="M298.611,322.222l-180.555,0c-2.026,0 -3.69,-0.651 -4.992,-1.953c-1.302,-1.302 -1.953,-2.966 -1.953,-4.991l0,-13.889c0,-2.026 0.651,-3.689 1.953,-4.991c1.302,-1.303 2.966,-1.954 4.992,-1.954l76.388,0l0,-16.666l-159.722,0c-9.548,0 -17.723,-3.4 -24.522,-10.2c-6.8,-6.8 -10.2,-14.974 -10.2,-24.522l0,-208.334c0,-9.548 3.4,-17.723 10.2,-24.522c6.799,-6.8 14.974,-10.2 24.522,-10.2l347.222,0c9.549,0 17.723,3.4 24.523,10.2c6.8,6.799 10.2,14.974 10.2,24.522l0,208.334c0,9.548 -3.4,17.722 -10.2,24.522c-6.797,6.797 -14.968,10.197 -24.523,10.2l-159.722,0l0,16.666l76.389,0c2.031,0.003 3.691,0.654 4.991,1.954c1.303,1.302 1.954,2.965 1.954,4.991l0,13.889c0,2.025 -0.651,3.689 -1.954,4.991c-1.3,1.3 -2.96,1.951 -4.991,1.953Zm72.839,-301.445c13.758,0.262 26.018,12.267 26.458,26.121c1.16,60.853 1.16,121.74 0,182.593c-0.433,13.637 -12.375,25.679 -26.115,26.115c-108.953,2.07 -217.966,2.07 -326.92,0c-13.637,-0.432 -25.679,-12.375 -26.114,-26.115c-1.158,-60.853 -1.158,-121.74 0,-182.593c0.432,-13.637 12.375,-25.679 26.114,-26.115c108.839,-2.071 217.72,-0.696 326.577,-0.006Zm-0.365,12.498c7.338,0.001 13.994,6.379 14.321,13.755c1.924,60.622 0.394,121.307 0.009,181.958c-0.14,7.34 -6.477,13.792 -13.754,14.115c-108.707,3.444 -217.526,0.706 -326.285,0.01c-7.34,-0.14 -13.792,-6.477 -14.115,-13.754c-1.925,-60.684 -1.161,-121.44 -0.006,-182.144c0.236,-7.452 6.896,-13.892 14.327,-13.94l325.503,0Zm-116.364,111.323l-90.525,50.307c-1.046,0.59 -1.943,0.659 -2.693,0.204c-0.75,-0.454 -1.125,-1.272 -1.125,-2.454l0,-100.341c0,-1.181 0.375,-1.999 1.125,-2.454c0.75,-0.454 1.647,-0.386 2.693,0.205l90.525,50.307c1.045,0.59 1.567,1.295 1.567,2.113c0,0.818 -0.522,1.522 -1.567,2.113Z"/></svg>