<?xml version="1.0" encoding="UTF-8" standalone="no"?><!DOCTYPE svg PUBLIC "-//W3C//DTD SVG 1.1//EN" "http://www.w3.org/Graphics/SVG/1.1/DTD/svg11.dtd"><svg width="100%" height="100%" viewBox="0 0 9 8" version="1.1" xmlns="http://www.w3.org/2000/svg" xmlns:xlink="http://www.w3.org/1999/xlink" xml:space="preserve" xmlns:serif="http://www.serif.com/" style="fill-rule:evenodd;clip-rule:evenodd;stroke-linejoin:round;stroke-miterlimit:1.41421;"><path d="M2.632,3.76l0,0.752c0,0.415 0.338,0.752 0.752,0.752l1.504,0c0.415,0 0.752,-0.337 0.752,-0.752l0,-0.752l2.257,0l0,2.633c0,0.415 -0.337,0.752 -0.752,0.752l-6.017,0c-0.415,0 -0.752,-0.337 -0.752,-0.752l0,-2.633l2.256,0Zm0.752,-0.376l1.503,0l0,1.128l-1.503,0l0,-1.128Zm1.88,-3.384c0.415,0 0.753,0.338 0.753,0.752l0,0.752l1.504,0c0.415,0 0.752,0.337 0.752,0.752l0,1.128l-2.633,0c0,-0.414 -0.337,-0.752 -0.752,-0.752l-1.504,0c-0.414,0 -0.752,0.338 -0.752,0.752l-2.632,0l0,-1.128c0,-0.415 0.337,-0.752 0.752,-0.752l1.504,0l0,-0.752c0,-0.414 0.337,-0.752 0.752,-0.752l2.256,0Zm0,1.504l0,-0.752l-2.256,0l0,0.752l2.256,0Z" style="fill-rule:nonzero;"/></svg>