<?xml version="1.0" encoding="UTF-8" standalone="no"?><!DOCTYPE svg PUBLIC "-//W3C//DTD SVG 1.1//EN" "http://www.w3.org/Graphics/SVG/1.1/DTD/svg11.dtd"><svg width="100%" height="100%" viewBox="0 0 12 12" version="1.1" xmlns="http://www.w3.org/2000/svg" xmlns:xlink="http://www.w3.org/1999/xlink" xml:space="preserve" xmlns:serif="http://www.serif.com/" style="fill-rule:evenodd;clip-rule:evenodd;stroke-linejoin:round;stroke-miterlimit:1.41421;"><path d="M5.83,2.6c-0.086,-0.763 0.161,-1.527 0.899,-2.103c0.431,-0.337 0.985,-0.498 1.536,-0.497c2.265,0.03 4.41,2.912 2.819,4.835c-0.49,0.592 -1.282,0.879 -2.07,0.838l-6.152,4.682l-0.745,-0.732c-0.959,0.402 -2.431,0.774 -1.279,1.413c1.047,0.579 2.76,-0.456 3.85,-0.851c1.995,-0.722 4.359,-0.477 5.983,0.929l-0.318,0.367c-0.07,-0.06 -0.07,-0.06 -0.141,-0.118c-1.515,-1.205 -3.692,-1.361 -5.445,-0.689c-1.341,0.515 -2.674,1.349 -3.993,0.863c-0.12,-0.044 -0.234,-0.107 -0.337,-0.182c-0.489,-0.358 -0.789,-1.177 0.34,-1.677c0.313,-0.138 0.705,-0.309 0.967,-0.422l-0.595,-0.585l4.681,-6.071Zm0.139,0.615l-4.172,5.412l1.105,1.086l5.457,-4.152c-1.08,-0.319 -2.028,-1.28 -2.39,-2.346Zm0.581,-1.754c-0.065,0.121 -0.117,0.252 -0.153,0.392c-0.447,1.741 1.536,3.894 3.485,3.235c0.083,-0.028 0.164,-0.062 0.242,-0.102c-1.64,-0.613 -2.996,-2.026 -3.574,-3.525Zm4.054,3.174c0.202,-0.205 0.355,-0.458 0.437,-0.744c0.45,-1.566 -1.064,-3.424 -2.836,-3.405c-0.482,0.011 -0.953,0.194 -1.301,0.517c0.527,1.702 2.085,3.15 3.7,3.632Z" style="fill-rule:nonzero;"/></svg>